<svg width="43" height="43" viewBox="0 0 43 43" fill="none" xmlns="http://www.w3.org/2000/svg">
<mask id="mask0_291_49" style="mask-type:alpha" maskUnits="userSpaceOnUse" x="0" y="0" width="43" height="43">
<rect width="43" height="43" fill="#D9D9D9"/>
</mask>
<g mask="url(#mask0_291_49)">
<path d="M18.4094 21.5C17.5733 21.5 16.8865 21.1865 16.349 20.5594C15.8115 19.9323 15.6174 19.2007 15.7667 18.3646L16.3042 15.1396C16.5431 13.8556 17.1477 12.803 18.1182 11.9818C19.0887 11.1606 20.216 10.75 21.5 10.75C22.8139 10.75 23.9561 11.1606 24.9266 11.9818C25.897 12.803 26.5017 13.8556 26.7406 15.1396L27.2781 18.3646C27.4274 19.2007 27.2333 19.9323 26.6958 20.5594C26.1583 21.1865 25.4715 21.5 24.6354 21.5H18.4094ZM19.4844 17.9167H23.5604L23.2021 15.7219C23.1424 15.3038 22.9483 14.9679 22.6198 14.7141C22.2913 14.4602 21.9181 14.3333 21.5 14.3333C21.0819 14.3333 20.7161 14.4602 20.4026 14.7141C20.0891 14.9679 19.9024 15.3038 19.8427 15.7219L19.4844 17.9167ZM5.55417 23.2469C4.86736 23.2767 4.2776 23.1424 3.7849 22.8438C3.29219 22.5451 2.97118 22.0823 2.82188 21.4552C2.76215 21.1865 2.74722 20.9177 2.77708 20.649C2.80694 20.3802 2.8816 20.1264 3.00104 19.8875C3.00104 19.9174 2.98611 19.8576 2.95625 19.7083C2.89653 19.6486 2.74722 19.2903 2.50833 18.6333C2.44861 18.275 2.4934 17.9316 2.64271 17.6031C2.79201 17.2747 2.98611 16.991 3.225 16.7521L3.31458 16.6625C3.37431 16.0951 3.60573 15.6174 4.00885 15.2292C4.41198 14.841 4.91215 14.6469 5.50938 14.6469C5.59896 14.6469 5.88264 14.7066 6.36042 14.826L6.49479 14.7812C6.6441 14.6319 6.83819 14.52 7.07708 14.4453C7.31597 14.3707 7.56979 14.3333 7.83854 14.3333C8.16701 14.3333 8.45816 14.3856 8.71198 14.4901C8.9658 14.5946 9.16736 14.7514 9.31667 14.9604C9.34653 14.9604 9.36892 14.9679 9.38385 14.9828C9.39878 14.9977 9.42118 15.0052 9.45104 15.0052C9.8691 15.0351 10.2349 15.162 10.5484 15.3859C10.862 15.6099 11.0934 15.916 11.2427 16.3042C11.3024 16.5132 11.3248 16.7148 11.3099 16.9089C11.295 17.103 11.2576 17.2896 11.1979 17.4688C11.1979 17.4986 11.2128 17.5583 11.2427 17.6479C11.4517 17.8569 11.616 18.0884 11.7354 18.3422C11.8549 18.596 11.9146 18.8573 11.9146 19.126C11.9146 19.2455 11.825 19.559 11.6458 20.0667C11.616 20.1264 11.616 20.1861 11.6458 20.2458L11.7354 20.9625C11.7354 21.5896 11.4741 22.1271 10.9516 22.575C10.429 23.0229 9.79444 23.2469 9.04792 23.2469H5.55417ZM35.8333 23.2917C34.8479 23.2917 34.0043 22.9408 33.3026 22.2391C32.6009 21.5373 32.25 20.6937 32.25 19.7083C32.25 19.35 32.3023 19.0141 32.4068 18.7005C32.5113 18.387 32.6531 18.0809 32.8323 17.7823L31.5781 16.6625C31.2795 16.4236 31.2273 16.125 31.4214 15.7667C31.6155 15.4083 31.8917 15.2292 32.25 15.2292H35.8333C36.8187 15.2292 37.6623 15.58 38.3641 16.2818C39.0658 16.9835 39.4167 17.8271 39.4167 18.8125V19.7083C39.4167 20.6937 39.0658 21.5373 38.3641 22.2391C37.6623 22.9408 36.8187 23.2917 35.8333 23.2917ZM0 32.25V29.4281C0 28.1142 0.66441 27.0616 1.99323 26.2703C3.32205 25.479 5.04653 25.0833 7.16667 25.0833C7.55486 25.0833 7.92812 25.0908 8.28646 25.1057C8.64479 25.1207 8.98819 25.158 9.31667 25.2177C8.89861 25.8149 8.58507 26.4569 8.37604 27.1438C8.16701 27.8306 8.0625 28.5622 8.0625 29.3385V32.25H0ZM10.75 32.25V29.3385C10.75 27.3976 11.7429 25.8299 13.7286 24.6354C15.7144 23.441 18.3049 22.8438 21.5 22.8438C24.725 22.8438 27.3229 23.441 29.2938 24.6354C31.2646 25.8299 32.25 27.3976 32.25 29.3385V32.25H10.75ZM35.8333 25.0833C37.9833 25.0833 39.7153 25.479 41.0292 26.2703C42.3431 27.0616 43 28.1142 43 29.4281V32.25H34.9375V29.3385C34.9375 28.5622 34.8405 27.8306 34.6464 27.1438C34.4523 26.4569 34.1611 25.8149 33.7729 25.2177C34.1014 25.158 34.4373 25.1207 34.7807 25.1057C35.1241 25.0908 35.475 25.0833 35.8333 25.0833ZM21.5 26.4271C19.7979 26.4271 18.275 26.651 16.9312 27.099C15.5875 27.5469 14.7962 28.0694 14.5573 28.6667H28.4875C28.2188 28.0694 27.42 27.5469 26.0911 27.099C24.7623 26.651 23.2319 26.4271 21.5 26.4271Z" fill="white"/>
</g>
</svg>
