<svg width="139" height="163" viewBox="0 0 139 163" fill="none" xmlns="http://www.w3.org/2000/svg">
<g clip-path="url(#clip0_78_61)">
<path d="M70.4782 -0.0831556C70.6984 -0.0831556 70.9159 -0.0831556 71.1414 -0.0804946C85.3915 -0.0219532 99.074 5.10042 110.512 13.549C111.823 14.5016 112.942 15.1136 114.595 14.9008C115.438 14.616 116.231 14.2808 117.038 13.8976C119.104 12.9875 121.701 12.9689 123.81 13.7752C126.267 15.119 128.184 17.458 129.153 20.0737C130.007 23.3733 129.765 27.3781 128.073 30.361C127.797 31.0129 127.906 31.2684 128.123 31.931C128.391 32.4073 128.391 32.4073 128.734 32.865C128.925 33.1311 128.925 33.1311 129.118 33.4025C129.253 33.5941 129.391 33.783 129.532 33.9773C129.675 34.1768 129.816 34.3764 129.964 34.5813C130.683 35.5925 131.41 36.5983 132.142 37.5988C135.02 41.5664 137.148 45.5525 138.469 50.2917C138.575 50.6722 138.575 50.6722 138.684 51.058C139.941 56.6248 138.806 62.5215 135.816 67.3219C134.447 69.3868 132.901 71.175 131.142 72.9099C130.909 73.1414 130.675 73.3729 130.437 73.6098C128.747 75.2675 127.017 76.7976 125.105 78.184C124.675 78.5006 124.256 78.8253 123.837 79.1526C117.38 84.1179 109.09 87.335 100.912 87.3138C100.666 87.3138 100.416 87.3138 100.162 87.3138C99.334 87.3164 98.509 87.3164 97.6814 87.3138C97.0872 87.3138 96.493 87.3164 95.8988 87.3164C94.2833 87.3164 92.6705 87.3164 91.0576 87.3164C89.3599 87.3138 87.6649 87.3164 85.9698 87.3164C82.9325 87.3164 79.8978 87.3164 76.8605 87.3138C74.123 87.3138 71.3854 87.3138 68.6505 87.3138C65.4594 87.3164 62.2708 87.3164 59.0823 87.3164C57.3979 87.3164 55.7134 87.3164 54.029 87.3164C23.6161 87.3297 23.6161 87.3297 12.4669 78.2319C12.3184 78.1121 12.1698 77.9924 12.0186 77.8673C6.46923 73.3357 1.19307 67.4815 0.0815963 60.1373C0.0497642 59.7834 0.0232382 59.4294 -0.000635877 59.0729C-0.0138992 58.8653 -0.0271636 58.6578 -0.0430796 58.4422C-0.287125 51.2709 3.71576 44.8793 7.29687 38.9719C7.59131 38.4876 7.88576 38.0007 8.17755 37.5137C8.97601 36.1939 9.77711 34.8873 10.6817 33.6367C11.8223 32.1385 11.8223 32.1385 12.1698 30.345C11.9152 29.1077 11.3926 28.022 10.8753 26.8751C10.2042 23.7991 10.5729 20.8188 12.1035 18.062C13.5731 15.7816 15.3238 13.9082 18.0375 13.3042C21.3613 12.8758 24.1891 14.1451 27.0566 15.6991C27.306 15.5075 27.5527 15.3132 27.8073 15.1136C36.6434 8.29624 46.5193 3.38675 57.4642 1.13025C57.7189 1.07703 57.9762 1.02381 58.2388 0.970589C62.3 0.180281 66.348 -0.101782 70.4782 -0.0831556ZM32.797 48.9239C30.7836 51.5743 29.8923 54.7089 30.2398 58.0085C30.9295 61.3054 32.5052 64.2378 35.3542 66.1271C37.3941 67.2607 39.4207 67.6226 41.6967 67.0398C44.0629 66.2069 46.0444 64.3922 47.2859 62.2155C48.8828 58.8201 48.8987 55.4353 47.7475 51.8883C46.7474 49.206 45.0232 47.5189 42.4395 46.3348C38.9539 45.0123 35.2985 46.2443 32.797 48.9239ZM94.965 48.1629C92.559 50.768 91.6041 53.5088 91.6386 57.0053C91.7712 60.1399 93.0206 62.7184 95.2303 64.927C97.0368 66.473 99.1589 67.439 101.565 67.3405C103.934 66.9866 106.096 65.8105 107.576 63.9185C109.738 60.6455 110.345 57.133 109.637 53.2959C108.862 50.5179 107.385 48.5088 105.045 46.8324C101.591 44.9245 97.8962 45.7467 94.965 48.1629Z" fill="white"/>
<path d="M120.316 103.516C122.717 105.743 124.21 107.997 124.595 111.323C124.727 114.827 123.73 118.005 121.382 120.631C118.854 123.031 115.902 124.154 112.448 124.08C109.156 123.76 106.174 122.31 104.052 119.756C101.951 116.9 101.108 113.995 101.63 110.447C102.323 107.132 104.254 104.388 107.052 102.51C111.254 100.032 116.573 100.346 120.316 103.516Z" fill="white"/>
<path d="M35.2658 103.75C37.5338 105.919 39.0008 108.457 39.1307 111.637C39.1626 115.24 38.0882 118.034 35.6531 120.714C33.0667 123.042 30.5043 124.101 27.0054 124.021C23.6524 123.726 20.8353 122.151 18.5619 119.697C16.4822 116.922 15.8907 114.085 16.1745 110.65C16.5141 108.636 17.4398 107.012 18.5619 105.328C18.7131 105.094 18.867 104.857 19.0261 104.615C23.5118 99.9875 30.3239 99.5803 35.2658 103.75Z" fill="white"/>
<path d="M39.2595 90.2069C59.9185 90.2069 80.5775 90.2069 101.863 90.2069C96.788 95.2973 80.4263 95.6699 73.479 95.7949C73.0864 95.8029 73.0864 95.8029 72.6832 95.8109C61.3563 96.0131 49.8729 94.6241 39.2595 90.473C39.2595 90.3852 39.2595 90.2974 39.2595 90.2069Z" fill="white"/>
</g>
<path d="M20.6988 156.418C21.7721 156.418 22.7463 156.261 23.6213 155.946C24.508 155.631 25.1671 155.322 25.5988 155.018L27.8388 159.463C27.2905 159.93 26.3513 160.402 25.0213 160.881C23.703 161.359 22.1338 161.598 20.3138 161.598C18.6105 161.598 17.0121 161.301 15.5188 160.706C14.0255 160.111 12.7071 159.277 11.5638 158.203C10.4321 157.118 9.53963 155.852 8.88629 154.406C8.24463 152.947 7.92379 151.367 7.92379 149.663C7.92379 147.96 8.24463 146.379 8.88629 144.921C9.52796 143.451 10.4146 142.173 11.5463 141.088C12.6896 140.003 14.008 139.163 15.5013 138.568C17.0063 137.962 18.6105 137.658 20.3138 137.658C22.1338 137.658 23.703 137.897 25.0213 138.376C26.3513 138.854 27.2905 139.327 27.8388 139.793L25.5988 144.238C25.1671 143.923 24.508 143.614 23.6213 143.311C22.7463 142.996 21.7721 142.838 20.6988 142.838C19.5088 142.838 18.4705 143.025 17.5838 143.398C16.6971 143.76 15.9563 144.262 15.3613 144.903C14.7663 145.545 14.323 146.268 14.0313 147.073C13.7396 147.878 13.5938 148.724 13.5938 149.611C13.5938 150.509 13.7396 151.367 14.0313 152.183C14.323 152.988 14.7663 153.712 15.3613 154.353C15.9563 154.995 16.6971 155.502 17.5838 155.876C18.4705 156.237 19.5088 156.418 20.6988 156.418ZM44.2199 151.886H36.2399V161.178H31.0249V138.078H36.2399V147.318H44.2199V138.078H49.4174V161.178H44.2199V151.886ZM60.8684 138.078H66.0659L75.1834 161.178H69.6009L67.9209 156.541H59.0309L57.3334 161.178H51.7334L60.8684 138.078ZM60.7809 151.956H66.1884L63.5109 144.378H63.4584L60.7809 151.956ZM79.0799 142.663H73.5674V138.078H89.8074V142.663H84.3124V161.178H79.0799V142.663ZM101.034 137.658C102.469 137.658 103.723 137.816 104.797 138.131C105.87 138.446 106.733 138.778 107.387 139.128C108.04 139.478 108.437 139.712 108.577 139.828L106.057 144.046C105.87 143.906 105.549 143.702 105.094 143.433C104.651 143.165 104.12 142.926 103.502 142.716C102.895 142.506 102.259 142.401 101.594 142.401C100.696 142.401 99.9667 142.564 99.4067 142.891C98.8584 143.206 98.5842 143.678 98.5842 144.308C98.5842 144.74 98.73 145.131 99.0217 145.481C99.325 145.819 99.78 146.146 100.387 146.461C101.005 146.764 101.787 147.097 102.732 147.458C103.595 147.773 104.406 148.147 105.164 148.578C105.923 149.01 106.588 149.523 107.159 150.118C107.743 150.702 108.203 151.378 108.542 152.148C108.88 152.918 109.049 153.793 109.049 154.773C109.049 155.94 108.81 156.955 108.332 157.818C107.853 158.67 107.2 159.376 106.372 159.936C105.555 160.496 104.622 160.91 103.572 161.178C102.533 161.458 101.454 161.598 100.334 161.598C98.7475 161.598 97.3242 161.417 96.0642 161.056C94.8159 160.694 93.8067 160.303 93.0367 159.883C92.2667 159.463 91.8059 159.183 91.6542 159.043L94.2617 154.651C94.4017 154.756 94.67 154.925 95.0667 155.158C95.475 155.392 95.9709 155.637 96.5542 155.893C97.1375 156.138 97.7559 156.348 98.4092 156.523C99.0742 156.698 99.7275 156.786 100.369 156.786C101.443 156.786 102.248 156.582 102.784 156.173C103.321 155.753 103.589 155.205 103.589 154.528C103.589 154.027 103.42 153.577 103.082 153.181C102.743 152.784 102.236 152.411 101.559 152.061C100.883 151.699 100.037 151.32 99.0217 150.923C98.0067 150.515 97.0559 150.019 96.1692 149.436C95.2942 148.852 94.5825 148.123 94.0342 147.248C93.4859 146.373 93.2117 145.288 93.2117 143.993C93.2117 142.698 93.5734 141.578 94.2967 140.633C95.0317 139.677 95.9942 138.942 97.1842 138.428C98.3859 137.915 99.6692 137.658 101.034 137.658ZM125.554 138.078H130.787V152.271C130.787 154.172 130.413 155.823 129.667 157.223C128.92 158.612 127.852 159.691 126.464 160.461C125.076 161.219 123.419 161.598 121.494 161.598C119.557 161.598 117.889 161.219 116.489 160.461C115.089 159.691 114.016 158.612 113.269 157.223C112.534 155.823 112.167 154.172 112.167 152.271V138.078H117.382V151.991C117.382 153.041 117.545 153.927 117.872 154.651C118.21 155.374 118.688 155.922 119.307 156.296C119.925 156.657 120.654 156.838 121.494 156.838C122.322 156.838 123.04 156.657 123.647 156.296C124.253 155.922 124.72 155.374 125.047 154.651C125.385 153.927 125.554 153.041 125.554 151.991V138.078Z" fill="white"/>
<defs>
<clipPath id="clip0_78_61">
<rect width="139" height="124.267" fill="white"/>
</clipPath>
</defs>
</svg>


