<svg width="139" height="125" viewBox="0 0 139 125" fill="none" xmlns="http://www.w3.org/2000/svg">
<g clip-path="url(#clip0_274_58)">
<path d="M70.4782 -0.0831556C70.6984 -0.0831556 70.9159 -0.0831556 71.1414 -0.0804946C85.3915 -0.0219532 99.074 5.10042 110.512 13.549C111.823 14.5016 112.942 15.1136 114.595 14.9008C115.438 14.616 116.231 14.2808 117.038 13.8976C119.104 12.9875 121.701 12.9689 123.81 13.7752C126.267 15.119 128.184 17.458 129.153 20.0737C130.007 23.3733 129.765 27.3781 128.073 30.361C127.797 31.0129 127.906 31.2684 128.123 31.931C128.391 32.4073 128.391 32.4073 128.734 32.865C128.925 33.1311 128.925 33.1311 129.118 33.4025C129.253 33.5941 129.391 33.783 129.532 33.9773C129.675 34.1768 129.816 34.3764 129.964 34.5813C130.683 35.5925 131.41 36.5983 132.142 37.5988C135.02 41.5664 137.148 45.5525 138.469 50.2917C138.575 50.6722 138.575 50.6722 138.684 51.058C139.941 56.6248 138.806 62.5215 135.816 67.3219C134.447 69.3868 132.901 71.175 131.142 72.9099C130.909 73.1414 130.675 73.3729 130.437 73.6098C128.747 75.2675 127.017 76.7976 125.105 78.184C124.675 78.5006 124.256 78.8253 123.837 79.1526C117.38 84.1179 109.09 87.335 100.912 87.3138C100.666 87.3138 100.416 87.3138 100.162 87.3138C99.334 87.3164 98.509 87.3164 97.6814 87.3138C97.0872 87.3138 96.493 87.3164 95.8988 87.3164C94.2833 87.3164 92.6705 87.3164 91.0576 87.3164C89.3599 87.3138 87.6649 87.3164 85.9698 87.3164C82.9325 87.3164 79.8978 87.3164 76.8605 87.3138C74.123 87.3138 71.3854 87.3138 68.6505 87.3138C65.4594 87.3164 62.2708 87.3164 59.0823 87.3164C57.3979 87.3164 55.7134 87.3164 54.029 87.3164C23.6161 87.3297 23.6161 87.3297 12.4669 78.2319C12.3184 78.1121 12.1698 77.9924 12.0186 77.8673C6.46923 73.3357 1.19307 67.4815 0.0815963 60.1373C0.0497642 59.7834 0.0232382 59.4294 -0.000635876 59.0729C-0.0138992 58.8653 -0.0271636 58.6578 -0.0430796 58.4422C-0.287125 51.2709 3.71576 44.8793 7.29687 38.9719C7.59131 38.4876 7.88576 38.0007 8.17755 37.5137C8.97601 36.1939 9.77711 34.8873 10.6817 33.6367C11.8223 32.1385 11.8223 32.1385 12.1698 30.345C11.9152 29.1077 11.3926 28.022 10.8753 26.8751C10.2042 23.7991 10.5729 20.8188 12.1035 18.062C13.5731 15.7816 15.3238 13.9082 18.0375 13.3042C21.3613 12.8758 24.1891 14.1451 27.0566 15.6991C27.306 15.5075 27.5527 15.3132 27.8073 15.1136C36.6434 8.29624 46.5193 3.38675 57.4642 1.13025C57.7189 1.07703 57.9762 1.02381 58.2388 0.970589C62.3 0.180281 66.348 -0.101782 70.4782 -0.0831556ZM32.797 48.9239C30.7836 51.5743 29.8923 54.7089 30.2398 58.0085C30.9295 61.3054 32.5052 64.2378 35.3542 66.1271C37.3941 67.2607 39.4207 67.6226 41.6967 67.0398C44.0629 66.2069 46.0444 64.3922 47.2859 62.2155C48.8828 58.8201 48.8987 55.4353 47.7475 51.8883C46.7474 49.206 45.0232 47.5189 42.4395 46.3348C38.9539 45.0123 35.2985 46.2443 32.797 48.9239ZM94.965 48.1629C92.559 50.768 91.6041 53.5088 91.6386 57.0053C91.7712 60.1399 93.0206 62.7184 95.2303 64.927C97.0368 66.473 99.1589 67.439 101.565 67.3405C103.934 66.9866 106.096 65.8105 107.576 63.9185C109.738 60.6455 110.345 57.133 109.637 53.2959C108.862 50.5179 107.385 48.5088 105.045 46.8324C101.591 44.9245 97.8962 45.7467 94.965 48.1629Z" fill="white"/>
<path d="M120.316 103.516C122.717 105.743 124.21 107.997 124.595 111.323C124.727 114.827 123.73 118.005 121.382 120.631C118.854 123.031 115.902 124.154 112.448 124.08C109.156 123.76 106.174 122.31 104.052 119.756C101.951 116.9 101.108 113.995 101.63 110.447C102.323 107.132 104.254 104.388 107.052 102.51C111.254 100.032 116.573 100.346 120.316 103.516Z" fill="white"/>
<path d="M35.2658 103.75C37.5338 105.919 39.0008 108.457 39.1307 111.637C39.1626 115.24 38.0882 118.034 35.6531 120.714C33.0667 123.042 30.5043 124.101 27.0054 124.021C23.6524 123.726 20.8353 122.151 18.5619 119.697C16.4822 116.922 15.8907 114.085 16.1745 110.65C16.5141 108.636 17.4398 107.012 18.5619 105.328C18.7131 105.094 18.867 104.857 19.0261 104.615C23.5118 99.9875 30.3239 99.5803 35.2658 103.75Z" fill="white"/>
<path d="M39.2595 90.2069C59.9185 90.2069 80.5775 90.2069 101.863 90.2069C96.788 95.2973 80.4263 95.6699 73.479 95.7949C73.0864 95.8029 73.0864 95.8029 72.6832 95.8109C61.3563 96.0131 49.8729 94.6241 39.2595 90.473C39.2595 90.3852 39.2595 90.2974 39.2595 90.2069Z" fill="white"/>
</g>
<defs>
<clipPath id="clip0_274_58">
<rect width="139" height="124.267" fill="white"/>
</clipPath>
</defs>
</svg>
