<svg width="28" height="28" viewBox="0 0 28 28" fill="none" xmlns="http://www.w3.org/2000/svg">
<mask id="mask0_291_52" style="mask-type:alpha" maskUnits="userSpaceOnUse" x="0" y="0" width="28" height="28">
<rect width="28" height="28" fill="#D9D9D9"/>
</mask>
<g mask="url(#mask0_291_52)">
<path d="M23.5083 15.1667H9.33333V12.8333H23.5083L21.7 11.025L23.3333 9.33333L28 14L23.3333 18.6667L21.7 16.975L23.5083 15.1667ZM17.5 10.5V5.83333H5.83333V22.1667H17.5V17.5H19.8333V22.1667C19.8333 22.8083 19.6049 23.3576 19.1479 23.8146C18.691 24.2715 18.1417 24.5 17.5 24.5H5.83333C5.19167 24.5 4.64236 24.2715 4.18542 23.8146C3.72847 23.3576 3.5 22.8083 3.5 22.1667V5.83333C3.5 5.19167 3.72847 4.64236 4.18542 4.18542C4.64236 3.72847 5.19167 3.5 5.83333 3.5H17.5C18.1417 3.5 18.691 3.72847 19.1479 4.18542C19.6049 4.64236 19.8333 5.19167 19.8333 5.83333V10.5H17.5Z" fill="white"/>
</g>
</svg>
